<mxfile host="Electron" modified="2023-12-01T18:31:16.003Z" agent="Mozilla/5.0 (Windows NT 10.0; Win64; x64) AppleWebKit/537.36 (KHTML, like Gecko) draw.io/22.1.2 Chrome/114.0.5735.289 Electron/25.9.4 Safari/537.36" etag="OeDjDGdDdPXkpPs2B8rx" version="22.1.2" type="device">
  <diagram name="PÃ¡gina-1" id="XQGaTzEctuIrA6cVm32u">
    <mxGraphModel dx="880" dy="532" grid="1" gridSize="10" guides="1" tooltips="1" connect="1" arrows="1" fold="1" page="1" pageScale="1" pageWidth="827" pageHeight="1169" math="0" shadow="0">
      <root>
        <mxCell id="0" />
        <mxCell id="1" parent="0" />
        <mxCell id="R5jcbiGsLvWfnWbmUx2g-1" value="" style="rounded=1;whiteSpace=wrap;html=1;" parent="1" vertex="1">
          <mxGeometry x="120" y="20" width="600" height="60" as="geometry" />
        </mxCell>
        <mxCell id="R5jcbiGsLvWfnWbmUx2g-3" value="&lt;h1&gt;Webnovel Blog Template&lt;/h1&gt;" style="text;html=1;strokeColor=none;fillColor=none;align=center;verticalAlign=middle;whiteSpace=wrap;rounded=0;" parent="1" vertex="1">
          <mxGeometry x="284" y="35" width="260" height="30" as="geometry" />
        </mxCell>
        <mxCell id="R5jcbiGsLvWfnWbmUx2g-4" value="" style="rounded=1;whiteSpace=wrap;html=1;" parent="1" vertex="1">
          <mxGeometry x="320" y="90" width="190" height="60" as="geometry" />
        </mxCell>
        <mxCell id="R5jcbiGsLvWfnWbmUx2g-6" value="&lt;h2&gt;&lt;b&gt;Blog&#39;s Header&lt;/b&gt;&lt;/h2&gt;" style="text;html=1;strokeColor=none;fillColor=none;align=center;verticalAlign=middle;whiteSpace=wrap;rounded=0;" parent="1" vertex="1">
          <mxGeometry x="349" y="105" width="130" height="30" as="geometry" />
        </mxCell>
        <mxCell id="R5jcbiGsLvWfnWbmUx2g-8" value="Title and Subtitle" style="rounded=1;whiteSpace=wrap;html=1;" parent="1" vertex="1">
          <mxGeometry x="291" y="160" width="120" height="50" as="geometry" />
        </mxCell>
        <mxCell id="R5jcbiGsLvWfnWbmUx2g-10" value="Social Icons" style="rounded=1;whiteSpace=wrap;html=1;" parent="1" vertex="1">
          <mxGeometry x="423" y="302" width="120" height="50" as="geometry" />
        </mxCell>
        <mxCell id="R5jcbiGsLvWfnWbmUx2g-14" value="&lt;h2&gt;Main Body&lt;/h2&gt;" style="rounded=1;whiteSpace=wrap;html=1;" parent="1" vertex="1">
          <mxGeometry x="117.5" y="382" width="605" height="80" as="geometry" />
        </mxCell>
        <mxCell id="R5jcbiGsLvWfnWbmUx2g-16" value="Collapsable chapter list" style="rounded=1;whiteSpace=wrap;html=1;" parent="1" vertex="1">
          <mxGeometry x="124" y="472" width="101.33" height="38" as="geometry" />
        </mxCell>
        <mxCell id="R5jcbiGsLvWfnWbmUx2g-18" value="About" style="rounded=1;whiteSpace=wrap;html=1;" parent="1" vertex="1">
          <mxGeometry x="155" y="302" width="120" height="50" as="geometry" />
        </mxCell>
        <mxCell id="R5jcbiGsLvWfnWbmUx2g-19" value="Contact" style="rounded=1;whiteSpace=wrap;html=1;" parent="1" vertex="1">
          <mxGeometry x="294" y="302" width="120" height="50" as="geometry" />
        </mxCell>
        <mxCell id="R5jcbiGsLvWfnWbmUx2g-21" value="Cover Image" style="rounded=1;whiteSpace=wrap;html=1;" parent="1" vertex="1">
          <mxGeometry x="422" y="160" width="120" height="50" as="geometry" />
        </mxCell>
        <mxCell id="R5jcbiGsLvWfnWbmUx2g-22" value="&lt;h2&gt;Navbar&lt;/h2&gt;" style="rounded=1;whiteSpace=wrap;html=1;" parent="1" vertex="1">
          <mxGeometry x="321" y="223" width="190" height="60" as="geometry" />
        </mxCell>
        <mxCell id="R5jcbiGsLvWfnWbmUx2g-23" value="Shop" style="rounded=1;whiteSpace=wrap;html=1;" parent="1" vertex="1">
          <mxGeometry x="555" y="302" width="120" height="50" as="geometry" />
        </mxCell>
        <mxCell id="R5jcbiGsLvWfnWbmUx2g-25" value="Chapter Space" style="rounded=1;whiteSpace=wrap;html=1;" parent="1" vertex="1">
          <mxGeometry x="240" y="472" width="101.33" height="38" as="geometry" />
        </mxCell>
        <mxCell id="R5jcbiGsLvWfnWbmUx2g-26" value="Chapter Title&lt;br&gt;Paragrapghs&lt;br&gt;Illustration" style="rounded=1;whiteSpace=wrap;html=1;" parent="1" vertex="1">
          <mxGeometry x="180" y="562" width="120" height="60" as="geometry" />
        </mxCell>
        <mxCell id="R5jcbiGsLvWfnWbmUx2g-28" value="" style="endArrow=none;html=1;rounded=0;" parent="1" edge="1">
          <mxGeometry width="50" height="50" relative="1" as="geometry">
            <mxPoint x="239" y="560" as="sourcePoint" />
            <mxPoint x="289" y="510" as="targetPoint" />
          </mxGeometry>
        </mxCell>
        <mxCell id="R5jcbiGsLvWfnWbmUx2g-29" value="Buttons" style="rounded=1;whiteSpace=wrap;html=1;" parent="1" vertex="1">
          <mxGeometry x="359.15999999999997" y="472" width="107.67" height="38" as="geometry" />
        </mxCell>
        <mxCell id="R5jcbiGsLvWfnWbmUx2g-30" value="Previows&lt;br&gt;Next&lt;br&gt;Buy Book" style="rounded=1;whiteSpace=wrap;html=1;" parent="1" vertex="1">
          <mxGeometry x="320" y="563" width="120" height="60" as="geometry" />
        </mxCell>
        <mxCell id="R5jcbiGsLvWfnWbmUx2g-31" value="" style="endArrow=none;html=1;rounded=0;" parent="1" edge="1">
          <mxGeometry width="50" height="50" relative="1" as="geometry">
            <mxPoint x="385" y="560" as="sourcePoint" />
            <mxPoint x="435" y="510" as="targetPoint" />
          </mxGeometry>
        </mxCell>
        <mxCell id="R5jcbiGsLvWfnWbmUx2g-32" value="Comments" style="rounded=1;whiteSpace=wrap;html=1;" parent="1" vertex="1">
          <mxGeometry x="490" y="472" width="90" height="38" as="geometry" />
        </mxCell>
        <mxCell id="R5jcbiGsLvWfnWbmUx2g-33" value="Comments Form&lt;br&gt;Comments Section&lt;br&gt;(Possible Hivor talk plugin)" style="rounded=1;whiteSpace=wrap;html=1;" parent="1" vertex="1">
          <mxGeometry x="466.83" y="563" width="120" height="60" as="geometry" />
        </mxCell>
        <mxCell id="R5jcbiGsLvWfnWbmUx2g-34" value="" style="endArrow=none;html=1;rounded=0;" parent="1" edge="1">
          <mxGeometry width="50" height="50" relative="1" as="geometry">
            <mxPoint x="510" y="563" as="sourcePoint" />
            <mxPoint x="560" y="513" as="targetPoint" />
          </mxGeometry>
        </mxCell>
        <mxCell id="ksP0eQmsYhOleUiUnhRo-1" value="&lt;h2&gt;Footer&lt;/h2&gt;" style="rounded=1;whiteSpace=wrap;html=1;" vertex="1" parent="1">
          <mxGeometry x="120" y="640" width="600" height="90" as="geometry" />
        </mxCell>
        <mxCell id="ksP0eQmsYhOleUiUnhRo-2" value="Copyright info" style="rounded=1;whiteSpace=wrap;html=1;" vertex="1" parent="1">
          <mxGeometry x="270" y="760" width="120" height="40" as="geometry" />
        </mxCell>
        <mxCell id="ksP0eQmsYhOleUiUnhRo-3" value="Template&#39;s credits" style="rounded=1;whiteSpace=wrap;html=1;" vertex="1" parent="1">
          <mxGeometry x="411" y="760" width="120" height="40" as="geometry" />
        </mxCell>
      </root>
    </mxGraphModel>
  </diagram>
</mxfile>
